<?xml version="1.0" encoding="utf-8"?>
<!-- Generator: Adobe Illustrator 24.2.0, SVG Export Plug-In . SVG Version: 6.00 Build 0)  -->
<svg version="1.1" id="圖層_1" xmlns="http://www.w3.org/2000/svg" xmlns:xlink="http://www.w3.org/1999/xlink" x="0px" y="0px"
	 viewBox="0 0 560 560" style="enable-background:new 0 0 560 400;" xml:space="preserve">
<style type="text/css">
	.st0{fill:#754C24;stroke:#42210B;stroke-width:3;stroke-miterlimit:10;}
	.st1{clip-path:url(#SVGID_2_);}
	.st2{fill:#40210D;}
	.st3{clip-path:url(#SVGID_4_);}
</style>
<g>
	<path class="st0" d="M4.08,256.56c0-2,0-4,0-6c0.09-0.42,0.16-0.84,0.28-1.25c0.55-1.86,0.89-3.82,1.72-5.55
		c0.94-1.96,2.46-2.39,4.53-1.78c0.8,0.24,1.62,0.49,2.34,0.9c3.83,2.15,7.73,4.19,11.42,6.56c7.24,4.63,14.57,9.11,22.48,12.52
		c2.98,1.29,6.02,2.28,9.37,2.17c5.94-0.2,11.79-0.95,17.51-2.52c12.4-3.41,23.49-9.23,32.59-18.41c2.74-2.76,4.94-6.06,7.39-9.11
		c3.89-4.82,7.72-9.66,12.57-13.63c14.24-11.67,30.4-18.8,48.7-21.03c9.44-1.15,18.84-0.9,28.17,0.86
		c20.11,3.8,37.31,13.09,51.21,28.12c17.26,18.67,25.6,40.84,25.02,66.3c-0.25,10.91-2.76,21.36-6.96,31.39
		c-7.64,18.26-19.5,33.3-35.13,45.36c-10.79,8.32-22.7,14.41-35.98,17.69c-8.22,2.03-16.66,2.47-25.02,3.47
		c-2.05,0.25-4.09,0.5-6.14,0.76c-0.4,0-0.8,0-1.2,0c-0.3-0.08-0.6-0.2-0.91-0.23c-3.62-0.34-7.24-0.63-10.86-0.99
		c-7.57-0.75-14.99-2.26-22.2-4.72c-14.95-5.11-29.31-11.6-43.28-18.94c-9.45-4.96-18.68-10.31-27.18-16.81
		c-14.67-11.21-27.41-24.34-38.55-39.04c-4.39-5.8-8.75-11.66-11.99-18.19c-4.96-10-7.52-20.74-9.15-31.73
		C4.54,260.66,4.33,258.61,4.08,256.56z"/>
	<path class="st0" d="M373.47,185.97c24.85,0.35,46.45,8.84,64.46,26.07c3.19,3.05,5.77,6.72,8.59,10.15
		c2.31,2.8,4.32,5.89,6.88,8.44c9.13,9.1,20.19,14.88,32.55,18.26c5.18,1.42,10.48,2.1,15.83,2.45c3.95,0.26,7.59-0.65,11.15-2.22
		c8.14-3.6,15.7-8.22,23.16-13.03c3.38-2.18,6.99-4.02,10.52-5.97c0.66-0.36,1.39-0.6,2.11-0.83c2.31-0.72,3.82-0.11,4.99,2.04
		c1.26,2.31,1.54,4.85,1.64,7.42c0.25,6.31-0.66,12.51-1.93,18.67c-1.52,7.32-3.53,14.51-6.48,21.39
		c-2.59,6.03-6.35,11.37-10.14,16.66c-11.41,15.93-24.72,30.06-40.14,42.18c-8.92,7.02-18.68,12.73-28.71,18
		c-14.3,7.52-28.98,14.17-44.32,19.31c-7.04,2.36-14.28,3.74-21.65,4.47c-3.22,0.32-6.44,0.85-9.66,0.87
		c-3.78,0.02-7.58-0.32-11.35-0.69c-5.21-0.51-10.41-1.12-15.59-1.84c-8.85-1.24-17.26-4-25.24-7.98
		c-22.18-11.06-38.73-27.82-50.01-49.81c-4.98-9.71-8.26-20.01-9.48-30.87c-1.97-17.63,0.81-34.55,8.71-50.43
		c12.63-25.41,32.76-41.98,60.13-49.6C357.32,186.89,365.33,185.92,373.47,185.97z"/>
</g>
<g>
	<defs>
		<path id="SVGID_1_" d="M449.36,225.68c3.37,6.29,24.52,25.65,55.54,25.65c6.38,0,22.33-9.57,27.58-12.97
			c1.02-0.66,15.29-10.49,18.68-9.36c9.57,3.19,1.09,41.16-6.38,54.23c-3.81,6.66-19.78,32.05-47.85,54.23
			c-18.96,14.98-49.61,28.66-62.2,33.49c-15.81,6.07-22.33,7.97-44.66,9.57c-0.58,0.04-20.85-2.06-25.5-2.82
			c-44.33-7.23-84.55-52.08-84.55-98.46c0-51.53,41.77-93.3,93.3-93.3c25.76,0,49.09,10.44,65.98,27.33"/>
	</defs>
	<clipPath id="SVGID_2_">
		<use xlink:href="#SVGID_1_"  style="overflow:visible;"/>
	</clipPath>
	<g class="st1">
		<g>
			<g>
				<path class="st2" d="M291.83,236.22C292.03,235.89,291.72,236.33,291.83,236.22c0.08-0.1,0.17-0.2,0.27-0.29
					c0.11-0.11,0.23-0.21,0.36-0.3c-0.33,0.27,0.23-0.16,0.32-0.23c0.81-0.56,1.68-1.05,2.56-1.51c2.63-1.38,5.39-2.51,8.16-3.55
					c8.28-3.1,16.9-5.39,25.6-6.96c9.87-1.78,20.03-2.6,30.04-1.61c11.59,1.16,22.38,5.67,32.51,11.24
					c9.82,5.39,19.5,11.31,28.63,17.8c6.32,4.5,12.48,9.31,19.48,12.73c8.69,4.25,18.18,6.15,27.76,6.98
					c7.67,0.67,15.22-0.13,22.69-1.99c11.36-2.82,21.91-7.92,32.11-13.56c9.35-5.18,19.19-11.06,26.12-19.36
					c1.44-1.72,2.74-3.54,3.78-5.52c0.9-1.71-1.69-3.22-2.59-1.51c-2.26,4.29-5.71,7.82-9.38,10.93c-4.26,3.62-8.96,6.72-13.75,9.6
					c-10.13,6.08-20.82,11.67-32.14,15.16c-7.4,2.28-15.23,3.83-23.01,3.53c-9.45-0.37-19.27-2.02-27.97-5.86
					c-7.19-3.18-13.48-7.88-19.83-12.45c-8.7-6.26-17.86-11.91-27.15-17.24c-10.22-5.87-21.15-11.08-32.89-12.91
					c-10.04-1.56-20.27-1.09-30.3,0.36c-9.15,1.32-18.2,3.51-26.95,6.49c-3.26,1.11-6.49,2.34-9.63,3.76
					c-2.01,0.91-4.06,1.87-5.83,3.2c-0.59,0.45-1.17,0.92-1.56,1.56C288.24,236.37,290.83,237.88,291.83,236.22L291.83,236.22z"/>
			</g>
		</g>
		<g>
			<g>
				<path class="st2" d="M281.08,277.3c5.14-6.15,12.48-10.23,19.81-13.21c8.94-3.63,18.47-5.89,28.03-7.12
					c9.73-1.25,19.66-1.49,29.41-0.34c11.29,1.34,21.82,5.28,31.81,10.62c5.56,2.98,10.94,6.28,16.31,9.58
					c4.32,2.66,8.61,5.34,12.76,8.26c6.43,4.52,12.63,9.47,19.65,13.07c8.63,4.42,18.1,6.48,27.7,7.4
					c7.95,0.76,15.86,0.69,23.75-0.68c11.67-2.03,22.51-6.8,32.66-12.8c9.65-5.71,19.49-12.49,26.51-21.36
					c1.4-1.77,2.68-3.62,3.74-5.62c0.9-1.71-1.69-3.23-2.59-1.51c-2.3,4.38-5.68,8.09-9.29,11.45c-4.3,4.01-9.04,7.53-13.95,10.76
					c-10.03,6.59-20.83,12.21-32.55,15.08c-7.82,1.92-15.84,2.53-23.87,2.03c-9.7-0.61-19.55-2.16-28.43-6.27
					c-7.11-3.29-13.34-8.06-19.67-12.6c-8.9-6.37-18.3-12.14-27.83-17.51c-10.05-5.66-20.66-10.35-32.1-12.25
					c-9.64-1.6-19.51-1.73-29.23-0.84c-9.78,0.89-19.53,2.77-28.83,5.96c-7.99,2.74-15.93,6.44-22.31,12.06
					c-1.3,1.14-2.51,2.38-3.62,3.71C277.73,276.65,279.84,278.78,281.08,277.3L281.08,277.3z"/>
			</g>
		</g>
		<g>
			<g>
				<path class="st2" d="M286.61,309.94c4.92-3.14,10.2-5.74,15.54-8.08c7.14-3.14,14.55-5.75,22.1-7.7
					c7.99-2.06,16.23-3.4,24.5-3.25c8.88,0.16,17.3,2.63,25.37,6.26c9.12,4.1,17.61,9.42,26.11,14.64
					c6.21,3.82,12.12,7.99,18.04,12.24c4.98,3.58,10.08,7,15.71,9.48c6.97,3.07,14.37,4.72,21.91,5.61c3.24,0.38,6.5,0.75,9.76,0.55
					c3.12-0.19,6.23-0.61,9.32-1.08c8.3-1.28,16.57-3.12,24.56-5.73c1.95-0.64,3.88-1.33,5.79-2.08c1.77-0.7,1-3.6-0.8-2.89
					c-7.95,3.15-16.33,5.25-24.72,6.84c-5.76,1.09-11.94,2.36-17.83,1.95c-8.16-0.56-16.35-1.84-24.02-4.76
					c-5.76-2.2-11.01-5.43-16.03-8.96c-5.57-3.91-10.99-8.02-16.76-11.65c-8.37-5.27-16.82-10.57-25.7-14.95
					c-8.21-4.05-16.93-7.37-26.11-8.22c-8.18-0.76-16.47,0.16-24.48,1.84c-14.16,2.96-28.2,8.3-40.74,15.52
					c-1.02,0.59-2.04,1.2-3.03,1.83C283.48,308.38,284.98,310.98,286.61,309.94L286.61,309.94z"/>
			</g>
		</g>
		<g>
			<g>
				<path class="st2" d="M285.86,310.14c1.93,0,1.93-3,0-3C283.93,307.14,283.92,310.14,285.86,310.14L285.86,310.14z"/>
			</g>
		</g>
	</g>
</g>
<g>
	<defs>
		<path id="SVGID_3_" d="M110.17,238.44c-3.37,6.29-24.52,25.65-55.54,25.65c-6.38,0-22.33-9.57-27.58-12.97
			c-1.02-0.66-15.29-10.49-18.68-9.36c-9.57,3.19-1.09,41.16,6.38,54.23c3.81,6.66,19.78,32.05,47.85,54.23
			c18.96,14.98,49.61,28.66,62.2,33.49c15.81,6.07,22.33,7.97,44.66,9.57c0.58,0.04,20.85-2.06,25.5-2.82
			c44.33-7.23,84.55-52.08,84.55-98.46c0-51.53-41.77-93.3-93.3-93.3c-25.76,0-49.09,10.44-65.98,27.33"/>
	</defs>
	<clipPath id="SVGID_4_">
		<use xlink:href="#SVGID_3_"  style="overflow:visible;"/>
	</clipPath>
	<g class="st3">
		<g>
			<g>
				<path class="st2" d="M262.31,237.96c-1.02-1.4-2.77-2.15-4.32-2.82c-2.81-1.22-5.73-2.17-8.68-3.01
					c-8.51-2.43-17.29-3.98-26.09-4.86c-10.26-1.02-20.7-1.04-30.88,0.72c-11.45,1.97-21.89,6.97-31.59,13.25
					c-5.26,3.41-10.31,7.14-15.34,10.88c-4.16,3.1-8.31,6.2-12.29,9.53c-6.09,5.11-11.86,10.7-18.58,14.99
					c-8.03,5.13-17.12,7.95-26.44,9.66c-7.6,1.4-15.38,1.35-23.17,0.07c-5.81-0.96-11.53-2.48-17.1-4.41
					c-5.42-1.87-10.4-4.15-15.04-7.55c-8.61-6.31-15.77-14.71-21.91-23.38c-1.26-1.78-2.48-3.6-3.66-5.44
					c-1.04-1.62-3.63-0.12-2.59,1.51c5.51,8.64,11.96,16.86,19.44,23.89c3.91,3.67,8.17,7.07,12.89,9.65
					c5.26,2.88,11.2,4.76,16.96,6.35c8.71,2.41,17.93,3.87,26.99,3.28c4.35-0.28,8.69-1.13,12.93-2.11
					c4.8-1.11,9.51-2.58,14.03-4.57c7.27-3.2,13.54-7.94,19.53-13.09c3.22-2.77,6.41-5.59,9.7-8.28c4.35-3.56,8.91-6.86,13.43-10.2
					c9.93-7.32,20.33-14.53,32.11-18.53c9.69-3.29,20.07-4.14,30.25-3.88c9.62,0.24,19.23,1.5,28.62,3.62
					c3.6,0.81,7.18,1.75,10.68,2.91c2.32,0.77,4.44,1.48,6.51,2.66c0.3,0.17,0.59,0.36,0.88,0.56c-0.35-0.25,0.51,0.6,0.14,0.1
					C260.84,241.01,263.45,239.52,262.31,237.96L262.31,237.96z"/>
			</g>
		</g>
		<g>
			<g>
				<path class="st2" d="M280.22,282.59c-3.79-6.55-10.48-10.94-17.24-13.98c-8.6-3.87-17.89-5.97-27.22-7.15
					c-20.04-2.52-41.72-0.98-60.09,7.95c-11.81,5.74-22.36,13.9-32.78,21.81c-7.03,5.33-13.35,11.5-20.34,16.87
					c-7.23,5.55-15.31,9.33-24.13,11.6c-8.61,2.22-16.89,3.22-25.77,2.31c-5.59-0.58-11.11-1.77-16.49-3.34
					c-6.02-1.76-12.08-3.82-17.4-7.19c-9.5-6.01-17.15-14.91-23.59-24c-1.36-1.92-2.68-3.88-3.95-5.87
					c-1.04-1.62-3.63-0.12-2.59,1.51c5.8,9.09,12.55,17.82,20.69,24.95c4.2,3.68,8.82,7,13.97,9.22c5.99,2.59,12.33,4.56,18.7,5.98
					c8.28,1.84,17.02,2.82,25.47,1.66c10.01-1.37,20.12-4.07,28.95-9.1c7.19-4.09,13.27-9.73,19.51-15.09
					c3.88-3.33,7.89-6.47,11.99-9.53c5.33-3.98,10.66-7.97,16.21-11.64c9.74-6.42,20.08-11.39,31.54-13.79
					c9.78-2.05,19.86-2.63,29.83-2.18c9.76,0.44,19.55,1.91,28.86,4.91c7.42,2.39,15.07,5.86,20.43,11.71
					c1.1,1.2,2.05,2.49,2.87,3.9C278.6,285.78,281.19,284.27,280.22,282.59L280.22,282.59z"/>
			</g>
		</g>
		<g>
			<g>
				<path class="st2" d="M278.22,313.59c-0.76-1.05-1.91-1.77-3.01-2.44c-1.78-1.08-3.66-2-5.54-2.87
					c-5.76-2.65-11.74-4.83-17.81-6.67c-15.07-4.57-31.44-7.48-47.16-5.1c-8.99,1.36-17.35,5.15-25.14,9.73
					c-8.97,5.28-17.3,11.64-25.58,17.91c-10.83,8.2-20.16,18.66-32.66,24.42c-7.43,3.42-15.87,5.54-23.92,6.48
					c-7.54,0.88-15.28,0.08-22.67-1.48c-2.75-0.58-5.46-1.29-8.15-2.09c-1.86-0.55-2.65,2.35-0.8,2.89c8.68,2.57,17.78,4.22,26.85,4
					c7.68-0.19,15.49-1.91,22.77-4.3c6.59-2.16,12.75-5.29,18.34-9.39c5.32-3.91,10.15-8.43,15.2-12.67
					c7.09-5.96,14.63-11.47,22.22-16.76c8.23-5.73,17.06-11.22,26.72-14.15c14.97-4.54,31.61-2.27,46.49,1.53
					c6.67,1.7,13.25,3.84,19.63,6.44c3.79,1.55,7.76,3.2,11.11,5.6c0.29,0.21-0.22-0.2,0.1,0.07c0.08,0.07,0.17,0.13,0.24,0.21
					c0.14,0.13,0.53,0.63,0.18,0.15C276.76,316.66,279.36,315.16,278.22,313.59L278.22,313.59z"/>
			</g>
		</g>
	</g>
</g>
</svg>
