<svg id="圖層_1" data-name="圖層 1" xmlns="http://www.w3.org/2000/svg" viewBox="0 0 550 550"><defs><style>.cls-1{fill:#fff;}</style></defs><path class="cls-1" d="M280,553.5A273.49,273.49,0,0,1,86.61,86.61,273.49,273.49,0,1,1,473.39,473.39,271.69,271.69,0,0,1,280,553.5Z" transform="translate(-5 -5)"/><path d="M280,8A272.08,272.08,0,0,1,385.87,530.63,272.07,272.07,0,0,1,174.13,29.37,270.32,270.32,0,0,1,280,8m0-3C128.12,5,5,128.12,5,280S128.12,555,280,555,555,431.88,555,280,431.88,5,280,5Z" transform="translate(-5 -5)"/><circle cx="275" cy="275" r="152"/><circle class="cls-1" cx="365.27" cy="190.47" r="38"/></svg>